<?xml version="1.0"?>
<svg xmlns="http://www.w3.org/2000/svg" xmlns:xlink="http://www.w3.org/1999/xlink" version="1.1" id="Layer_1" x="0px" y="0px" viewBox="0 0 496 496" xml:space="preserve" width="512px" height="512px" class=""><g>
<path style="fill:#fff" d="M328,447.2c0,27.2-21.6,48.8-48.8,48.8h-54.4c-27.2,0-48.8-21.6-48.8-48.8V48.8  C176,21.6,197.6,0,224.8,0h54.4C306.4,0,328,21.6,328,48.8V447.2z" data-original="#DB5435" class="active-path" data-old_color="#DB5435"/>
<path style="fill:#fff" d="M176,48.8C176,21.6,195.2,0,222.4,0h56.8C306.4,0,328,21.6,328,48.8v398.4  c0,27.2-21.6,48.8-48.8,48.8" data-original="#C43D27" class="" data-old_color="#C43D27"/>
<path style="fill:#fff" d="M496,279.2c0,27.2-21.6,48.8-48.8,48.8H48.8C21.6,328,0,306.4,0,279.2v-54.4  C0,197.6,21.6,176,48.8,176h398.4c27.2,0,48.8,21.6,48.8,48.8L496,279.2L496,279.2z" data-original="#DB5435" class="active-path" data-old_color="#DB5435"/>
<path style="fill:#fff" d="M48,176h397.6c27.2,0,50.4,19.2,50.4,46.4v56.8c0,27.2-21.6,48.8-48.8,48.8H240" data-original="#C43D27" class="" data-old_color="#C43D27"/>
<path style="fill:#fff;" d="M203.2,195.2c18.4,0,34.4,10.4,40.8,25.6c0.8,1.6,2.4,2.4,4,1.6c1.6,0.8,3.2-0.8,4-1.6  c5.6-15.2,21.6-25.6,40.8-25.6c23.2,0,42.4,16.8,42.4,37.6c0,7.2-2.4,14.4-7.2,20.8l0,0l0,0l-80,95.2l-79.2-93.6l0,0l0,0  c-4.8-6.4-7.2-13.6-7.2-20.8C160.8,212,180,195.2,203.2,195.2z" data-original="#EAE9DA"/>
<path style="fill:#fff" d="M248,223.2c1.6,0.8,3.2-0.8,4-1.6c5.6-15.2,21.6-25.6,40.8-25.6c23.2,0,42.4,16.8,42.4,37.6  c0,7.2-2.4,14.4-7.2,20.8l0,0l0,0l-80,94.4" data-original="#D8D5BF" class="" data-old_color="#D8D5BF"/>
</g> </svg>
