<svg 
 xmlns="http://www.w3.org/2000/svg"
 xmlns:xlink="http://www.w3.org/1999/xlink"
 width="44px" height="14px">
<path fill-rule="evenodd"  fill="rgb(255, 255, 255)"
 d="M40.096,8.685 L40.096,12.059 L36.770,12.059 L36.770,8.685 L33.628,8.685 L33.628,5.572 L36.770,5.572 L36.770,2.285 L40.096,2.285 L40.096,5.572 L43.228,5.572 L43.228,8.685 L40.096,8.685 ZM26.493,13.964 C24.740,13.964 23.340,13.337 22.292,12.083 C21.245,10.830 20.721,9.152 20.721,7.051 C20.721,4.943 21.245,3.263 22.292,2.009 C23.340,0.756 24.740,0.129 26.493,0.129 C28.246,0.129 29.645,0.756 30.689,2.009 C31.733,3.263 32.255,4.943 32.255,7.051 C32.255,9.152 31.733,10.830 30.689,12.083 C29.645,13.337 28.246,13.964 26.493,13.964 ZM28.083,4.257 C27.713,3.600 27.183,3.271 26.493,3.271 C25.803,3.271 25.272,3.598 24.898,4.252 C24.524,4.907 24.337,5.840 24.337,7.051 C24.337,8.263 24.524,9.194 24.898,9.845 C25.272,10.496 25.803,10.822 26.493,10.822 C27.183,10.822 27.713,10.498 28.083,9.850 C28.454,9.202 28.639,8.273 28.639,7.061 C28.639,5.849 28.454,4.914 28.083,4.257 ZM13.432,13.964 C11.678,13.964 10.278,13.337 9.231,12.083 C8.183,10.830 7.660,9.152 7.660,7.051 C7.660,4.943 8.183,3.263 9.231,2.009 C10.278,0.756 11.678,0.129 13.432,0.129 C15.185,0.129 16.583,0.756 17.628,2.009 C18.672,3.263 19.194,4.943 19.194,7.051 C19.194,9.152 18.672,10.830 17.628,12.083 C16.583,13.337 15.185,13.964 13.432,13.964 ZM15.022,4.257 C14.651,3.600 14.121,3.271 13.432,3.271 C12.742,3.271 12.210,3.598 11.836,4.252 C11.463,4.907 11.276,5.840 11.276,7.051 C11.276,8.263 11.463,9.194 11.836,9.845 C12.210,10.496 12.742,10.822 13.432,10.822 C14.121,10.822 14.651,10.498 15.022,9.850 C15.393,9.202 15.578,8.273 15.578,7.061 C15.578,5.849 15.393,4.914 15.022,4.257 ZM1.975,3.435 L0.022,3.435 L0.022,0.448 L5.514,0.448 L5.514,13.616 L1.975,13.616 L1.975,3.435 Z"/>
</svg>